<?xml version="1.0" standalone="no"?>
<!DOCTYPE svg PUBLIC "-//W3C//DTD SVG 20010904//EN"
 "http://www.w3.org/TR/2001/REC-SVG-20010904/DTD/svg10.dtd">
<svg version="1.0" xmlns="http://www.w3.org/2000/svg"
 width="399.000000pt" height="399.000000pt" viewBox="0 0 399.000000 399.000000"
 preserveAspectRatio="xMidYMid meet">

<g transform="translate(0.000000,399.000000) scale(0.100000,-0.100000)"
fill="#000000" stroke="none">
<path d="M0 1995 l0 -1995 1995 0 1995 0 0 1995 0 1995 -1995 0 -1995 0 0
-1995z m1479 1300 l273 -235 252 -2 c138 -1 261 -1 274 0 12 0 22 -5 22 -11 0
-7 -69 -147 -153 -312 l-153 -300 -157 -3 c-86 -1 -157 -6 -158 -10 0 -4 -26
-212 -58 -462 -42 -336 -54 -457 -45 -462 6 -4 187 -5 401 -1 l391 6 6 45 c3
25 6 58 6 73 l0 29 -313 0 c-173 0 -316 2 -319 5 -2 3 -1 33 3 67 4 35 19 164
34 288 14 124 30 235 35 248 l10 22 630 0 c518 0 630 -2 630 -13 0 -8 -11
-103 -25 -213 -22 -183 -115 -975 -130 -1121 l-7 -63 -1034 0 -1035 0 -149
307 c-83 168 -148 308 -146 310 2 3 85 4 184 3 115 0 183 3 187 10 3 5 17 101
31 213 13 111 35 290 49 397 25 194 92 750 140 1160 28 236 32 260 43 260 4 0
130 -106 281 -235z m1931 -245 c0 -5 -69 -147 -152 -315 l-153 -305 -468 0
c-258 0 -467 3 -465 8 42 94 311 612 320 615 25 10 918 7 918 -3z"/>
</g>
</svg>
